{"title":"KABALI - (2016) - CAM Rip - Dual Audio [Hindi - Tamil] - 700MB -","uid":15408707,"size":837983313,"categoryP":"video","categoryS":"movies","magnet":"?xt=urn:btih:678b86a950a94484f050231debbe33bdf7b8cae0&amp;dn=KABALI+-+%282016%29+-+CAM+Rip+-+Dual+Audio+%5BHindi+-+Tamil%5D+-+700MB+-&amp;tr=udp%3A%2F%2Ftracker.leechers-paradise.org%3A6969&amp;tr=udp%3A%2F%2Fzer0day.ch%3A1337&amp;tr=udp%3A%2F%2Fopen.demonii.com%3A1337&amp;tr=udp%3A%2F%2Ftracker.coppersurfer.tk%3A6969&amp;tr=udp%3A%2F%2Fexodus.desync.com%3A6969","seeders":13,"leechers":0,"uploader":"makintos13","files":1,"time":1469535191,"description":"KABALI - (2016) - CAM Rip - Dual Audio [Hindi - Tamil] - 700MB - x264 - AAC - Makintos13\r\n\r\n \nhttps://imgmak.com/image/aCf\r\n \nhttps://imgmak.com/image/aCh\r\n \nhttps://imgmak.com/image/aCI\r\n \nhttps://imgmak.com/image/aCt\r\n \nhttps://imgmak.com/image/aCt\r\n \nhttps://imgmak.com/image/aCr\r\n\r\nINFO:\r\n\r\nFormat : Matroska\r\nFormat version : Version 4 / Version 2\r\nFile size : 799 MiB\r\nDuration : 2h 15mn\r\nOverall bit rate : 824 Kbps\r\n\r\n\r\nVideo\r\nID : 1\r\nFormat : AVC\r\nFormat/Info : Advanced Video Codec\r\nFormat profile :   \r\nFormat settings, CABAC : Yes\r\nFormat settings, ReFrames : 4 frames\r\nCodec ID : V_MPEG4/ISO/AVC\r\nDuration : 2h 15mn\r\nBit rate : 693 Kbps\r\nWidth : 640 pixels\r\nHeight : 272 pixels\r\nDisplay aspect ratio : 2.35:1\r\nFrame rate mode : Constant\r\nFrame rate : 23.976 (24000/1001) fps\r\nColor space : YUV\r\nChroma subsampling : 4:2:0\r\nBit depth : 8 bits\r\nScan type : Progressive\r\nBits/(Pixel*Frame) : 0.166\r\nStream size : 672 MiB (84%)\r\nDefault : Yes\r\nForced : No\r\n\r\nAudio #1\r\nID : 2\r\nFormat : AAC\r\nFormat/Info : Advanced Audio Codec\r\nFormat profile : LC\r\nCodec ID : A_AAC\r\nDuration : 2h 15mn\r\nBit rate : 64.1 Kbps\r\nChannel(s) : 2 channels\r\nChannel positions : Front: L R\r\nSampling rate : 48.0 KHz\r\nFrame rate : 46.875 fps (1024 spf)\r\nCompression mode : Lossy\r\nStream size : 62.2 MiB (8%)\r\nTitle : Stereo\r\nLanguage : Hindi\r\nDefault : Yes\r\nForced : No\r\n\r\nAudio #2\r\nID : 3\r\nFormat : AAC\r\nFormat/Info : Advanced Audio Codec\r\nFormat profile : LC\r\nCodec ID : A_AAC\r\nDuration : 2h 15mn\r\nBit rate : 64.2 Kbps\r\nChannel(s) : 2 channels\r\nChannel positions : Front: L R\r\nSampling rate : 48.0 KHz\r\nFrame rate : 46.875 fps (1024 spf)\r\nCompression mode : Lossy\r\nDelay relative to video : 62ms\r\nStream size : 62.3 MiB (8%)\r\nTitle : Stereo\r\nLanguage : Tamil\r\nDefault : No\r\nForced : No","torrent":{"xt":"urn:btih:678b86a950a94484f050231debbe33bdf7b8cae0","amp;dn":"KABALI+-+%282016%29+-+CAM+Rip+-+Dual+Audio+%5BHindi+-+Tamil%5D+-+700MB+-","amp;tr":["udp%3A%2F%2Ftracker.leechers-paradise.org%3A6969","udp%3A%2F%2Fzer0day.ch%3A1337","udp%3A%2F%2Fopen.demonii.com%3A1337","udp%3A%2F%2Ftracker.coppersurfer.tk%3A6969","udp%3A%2F%2Fexodus.desync.com%3A6969"],"infoHash":"678b86a950a94484f050231debbe33bdf7b8cae0","infoHashBuffer":{"type":"Buffer","data":[103,139,134,169,80,169,68,132,240,80,35,29,235,190,51,189,247,184,202,224]},"announce":[],"urlList":[]}}